<?xml version="1.0" encoding="UTF-8"?>
<svg version="1.1" xmlns="http://www.w3.org/2000/svg" width="640" height="331">
<path d="M0 0 C2.48426283 2.13443289 4.92099516 4.32153689 7.36401367 6.50292969 C8.23799805 7.19257812 9.11198242 7.88222656 10.01245117 8.59277344 C13.60225423 11.50874303 16.4076323 14.96264763 19.36401367 18.50292969 C19.99436523 19.24542969 20.6247168 19.98792969 21.27416992 20.75292969 C35.10079627 37.46582993 43.88235129 56.30244124 51.36401367 76.50292969 C67.76711673 73.84893928 67.76711673 73.84893928 81.05541992 64.56542969 C83.3122942 61.00832635 83.48750484 57.90032894 83.42651367 53.75292969 C83.41297852 52.55410156 83.41297852 52.55410156 83.39916992 51.33105469 C83.38756836 50.72777344 83.3759668 50.12449219 83.36401367 49.50292969 C86.00401367 48.84292969 88.64401367 48.18292969 91.36401367 47.50292969 C94.10086137 52.97662508 92.43231016 60.51482996 90.59838867 66.07714844 C87.05961837 73.03150401 79.5741482 77.90627285 72.36401367 80.50292969 C66.08555314 82.36632306 59.854589 83.63589903 53.36401367 84.50292969 C53.50838867 85.33050781 53.65276367 86.15808594 53.80151367 87.01074219 C59.99838253 126.86005163 51.79581483 169.00225752 28.30151367 202.06542969 C24.02569303 207.89315968 19.36446863 213.28934058 14.36401367 218.50292969 C13.49518555 219.44652344 12.62635742 220.39011719 11.73120117 221.36230469 C-5.75513472 239.98541958 -29.1764941 252.67360936 -53.63598633 259.50292969 C-54.71493164 259.81746094 -55.79387695 260.13199219 -56.90551758 260.45605469 C-92.91742071 269.88664293 -132.50105244 263.41410112 -164.88598633 245.75292969 C-175.29902129 239.49774968 -184.98919668 232.21762335 -193.63598633 223.69042969 C-196.83035606 220.64145738 -196.83035606 220.64145738 -200.76879883 218.89746094 C-206.41491895 219.19637318 -211.55558392 222.83772612 -215.63598633 226.50292969 C-217.82505667 229.1721307 -219.79193879 231.92301792 -221.74536133 234.76855469 C-227.94845181 243.73996654 -236.10395067 252.12631882 -245.63598633 257.50292969 C-246.95598633 255.85292969 -248.27598633 254.20292969 -249.63598633 252.50292969 C-248.16050486 248.84244562 -246.22380024 247.19506198 -243.07348633 244.87792969 C-236.07622388 239.43561445 -230.26940187 233.24302822 -225.51098633 225.75292969 C-220.94541976 218.64118177 -215.22559787 214.96485776 -207.63598633 211.50292969 C-209.63917834 208.06703401 -211.79669529 204.77202358 -214.04882812 201.49462891 C-229.06860847 179.49860506 -239.71131729 153.4724434 -240.63598633 126.50292969 C-240.66176758 125.87580078 -240.68754883 125.24867188 -240.71411133 124.60253906 C-242.10692428 86.33500329 -230.34565851 48.70408271 -204.76098633 19.81542969 C-203.39839024 18.36616672 -202.02546656 16.92643801 -200.63598633 15.50292969 C-199.81098633 14.65730469 -198.98598633 13.81167969 -198.13598633 12.94042969 C-197.31098633 12.13605469 -196.48598633 11.33167969 -195.63598633 10.50292969 C-195.03915039 9.86097656 -194.44231445 9.21902344 -193.82739258 8.55761719 C-144.81171467 -43.06623441 -53.78085499 -44.76709834 0 0 Z M53.36401367 114.50292969 C54.36401367 116.50292969 54.36401367 116.50292969 54.36401367 116.50292969 Z M-238.63598633 127.50292969 C-237.63598633 129.50292969 -237.63598633 129.50292969 -237.63598633 129.50292969 Z " fill="#F00101" transform="translate(344.635986328125,47.4970703125)"/>
<path d="M0 0 C2.34179133 2.34179133 2.29546326 2.81980865 2.3125 6 C2.10721698 12.39456617 1.32018292 18.26010919 -2.921875 23.26953125 C-12.78515512 32.43557949 -23.87482985 35.24670012 -37 37 C-36.855625 37.82757813 -36.71125 38.65515625 -36.5625 39.5078125 C-30.36563114 79.35712194 -38.56819884 121.49932784 -62.0625 154.5625 C-66.33832064 160.39022999 -70.99954504 165.7864109 -76 171 C-76.86882812 171.94359375 -77.73765625 172.8871875 -78.6328125 173.859375 C-96.11914839 192.48248989 -119.54050777 205.17067968 -144 212 C-145.07894531 212.31453125 -146.15789062 212.6290625 -147.26953125 212.953125 C-183.28143438 222.38371324 -222.86506611 215.91117143 -255.25 198.25 C-265.66303496 191.99481999 -275.35321035 184.71469367 -284 176.1875 C-287.19436973 173.13852769 -287.19436973 173.13852769 -291.1328125 171.39453125 C-296.77893263 171.69344349 -301.91959759 175.33479643 -306 179 C-308.18907034 181.66920101 -310.15595247 184.42008824 -312.109375 187.265625 C-318.31246548 196.23703685 -326.46796434 204.62338914 -336 210 C-337.98 207.525 -337.98 207.525 -340 205 C-338.52451854 201.33951593 -336.58781391 199.6921323 -333.4375 197.375 C-326.44023755 191.93268476 -320.63341554 185.74009853 -315.875 178.25 C-311.6629689 171.68895156 -305.55669851 166.38200279 -298 164 C-295.00667261 164.9977758 -294.05233685 165.7522025 -292 168 C-292.66 166.35 -293.32 164.7 -294 163 C-292.37191406 162.63648438 -292.37191406 162.63648438 -290.7109375 162.265625 C-289.26547493 161.92772466 -287.82017061 161.58914687 -286.375 161.25 C-285.66214844 161.09273437 -284.94929688 160.93546875 -284.21484375 160.7734375 C-279.47098786 159.64187555 -275.61651142 158.43298696 -272 155 C-270.76668666 151.73459913 -270.25191638 148.44452416 -269.75 145 C-269.45808168 143.20751906 -269.16137548 141.41580985 -268.859375 139.625 C-268.74045898 138.83351562 -268.62154297 138.04203125 -268.49902344 137.2265625 C-267.79559554 134.08798009 -266.97564933 131.68631884 -264.30078125 129.8046875 C-263.31658203 129.34449219 -263.31658203 129.34449219 -262.3125 128.875 C-261.66925781 128.56304687 -261.02601563 128.25109375 -260.36328125 127.9296875 C-252.57862882 124.86729531 -245.59610201 124.60232763 -237.25 124.5625 C-236.01894531 124.52962891 -234.78789062 124.49675781 -233.51953125 124.46289062 C-232.34261719 124.45580078 -231.16570312 124.44871094 -229.953125 124.44140625 C-228.88223633 124.42795166 -227.81134766 124.41449707 -226.70800781 124.40063477 C-224 125 -224 125 -222.23364258 127.43066406 C-221.82654053 128.27854492 -221.41943848 129.12642578 -221 130 C-219.32988663 131.7004578 -219.32988663 131.7004578 -217.4375 133.1875 C-213.0616696 136.86514596 -209.09166096 140.87201308 -205.1015625 144.9609375 C-203.16903954 147.04126091 -203.16903954 147.04126091 -201 148 C-200.79375 147.34 -200.5875 146.68 -200.375 146 C-198.76901731 142.49603776 -196.62263539 139.89562265 -194.14453125 136.96484375 C-192.82572777 135.0925104 -192.82572777 135.0925104 -193.0390625 133.01171875 C-196.75418469 125.23412554 -208.13720861 119.84208861 -215.34008789 115.53857422 C-222.37217202 111.3093417 -227.42289668 106.86565497 -232 100 C-228.71822728 100.44751446 -225.46603394 100.90849263 -222.21484375 101.546875 C-214.01198387 103.11335663 -206.84420361 103.6361073 -199 100.4375 C-188.09250504 96.53782923 -175.77763235 98.54042981 -165.125 102.140625 C-161.96741422 103.00896109 -159.73380387 103.03873249 -156.5 102.75 C-153.46904421 102.59073796 -152.46592991 102.58847804 -150.16015625 104.625 C-148.6106441 106.68596482 -147.302349 108.77667523 -146 111 C-145.46761719 111.67804688 -144.93523437 112.35609375 -144.38671875 113.0546875 C-142.33088131 115.93865101 -142.24092574 118.5065768 -142 122 C-142.28359375 122.94230469 -142.5671875 123.88460937 -142.859375 124.85546875 C-143.36705869 128.24465582 -143.36705869 128.24465582 -140.5 130.96484375 C-139.34967633 131.97465585 -138.18189453 132.96482824 -137 133.9375 C-135.79725418 134.98201115 -134.59542497 136.02757874 -133.39453125 137.07421875 C-132.51788818 137.82324463 -132.51788818 137.82324463 -131.62353516 138.58740234 C-128.58573067 141.23052066 -125.81247799 144.12211554 -123 147 C-120.13945858 144.30291809 -117.52456704 141.55626501 -115.125 138.4375 C-114.47917969 137.60025391 -114.47917969 137.60025391 -113.8203125 136.74609375 C-112.84527177 135.02443365 -112.84527177 135.02443365 -113.09375 133.03515625 C-116.81328924 124.68222546 -129.80587848 118.81952161 -137.36083984 114.33789062 C-142.21676928 111.39466171 -145.73116899 108.67826625 -149 104 C-149 103.34 -149 102.68 -149 102 C-140.86222087 99.26022667 -133.55937129 98.63258661 -125 99 C-124.67 97.68 -124.34 96.36 -124 95 C-135.02384099 94.37106454 -144.42654736 96.13262301 -155 99 C-155.66 97.68 -156.32 96.36 -157 95 C-131.27705759 87.75518626 -131.27705759 87.75518626 -120 91 C-119.62875 89.9171875 -119.62875 89.9171875 -119.25 88.8125 C-117.89016326 85.75286734 -116.17082246 83.5326262 -114 81 C-114.99 80.67 -115.98 80.34 -117 80 C-115.63981009 76.88036045 -114.16739866 74.99165178 -111.5625 72.8125 C-110.96566406 72.30332031 -110.36882812 71.79414063 -109.75390625 71.26953125 C-106.56235992 68.95939193 -103.69368275 68.8710851 -99.88671875 68.82421875 C-98.88576172 68.80037109 -97.88480469 68.77652344 -96.85351562 68.75195312 C-94.75475953 68.70922706 -92.65573968 68.67784535 -90.55664062 68.65820312 C-82.50433195 68.45136814 -82.50433195 68.45136814 -76 64 C-74.62762135 61.17214588 -73.81328337 58.27911898 -73 55.25 C-70.01822539 45.41043697 -66.56984288 38.86383877 -57.6484375 33.24609375 C-53.5001881 31.29433629 -49.214455 30.46018126 -44.72265625 29.640625 C-41.87075738 29.22166045 -41.87075738 29.22166045 -40 27 C-39.67 27.66 -39.34 28.32 -39 29 C-22.59689694 26.34600959 -22.59689694 26.34600959 -9.30859375 17.0625 C-7.05171947 13.50539666 -6.87650883 10.39739926 -6.9375 6.25 C-6.95103516 5.05117187 -6.95103516 5.05117187 -6.96484375 3.828125 C-6.97644531 3.22484375 -6.98804688 2.6215625 -7 2 C-4.69 1.34 -2.38 0.68 0 0 Z M-37 67 C-36 69 -36 69 -36 69 Z " fill="#00B400" transform="translate(435,95)"/>
<path d="M0 0 C1.5272747 -0.01418472 1.5272747 -0.01418472 3.08540344 -0.02865601 C4.72765144 -0.01954697 4.72765144 -0.01954697 6.40307617 -0.01025391 C8.10097542 -0.01455917 8.10097542 -0.01455917 9.83317566 -0.01895142 C12.22798157 -0.02099268 14.62280412 -0.01545852 17.01757812 -0.00292969 C20.671851 0.01307761 24.32501028 -0.00275409 27.97924805 -0.02197266 C30.30802652 -0.01998936 32.6368043 -0.01614391 34.96557617 -0.01025391 C36.05433548 -0.0163266 37.14309479 -0.02239929 38.2648468 -0.02865601 C44.22288606 0.0261707 48.68406244 0.36675684 53.88354492 3.38818359 C55.46923828 5.06713867 55.46923828 5.06713867 56.47338867 6.90771484 C56.86155762 7.59414062 57.24972656 8.28056641 57.6496582 8.98779297 C58.03621582 9.71804687 58.42277344 10.44830078 58.82104492 11.20068359 C59.4472876 12.32506836 59.4472876 12.32506836 60.08618164 13.47216797 C60.94387784 15.01361059 61.79382313 16.55939137 62.63598633 18.109375 C63.82829186 20.28725756 65.05479004 22.44029562 66.30151367 24.58740234 C66.86140991 25.55166138 66.86140991 25.55166138 67.43261719 26.53540039 C67.78767334 27.14681885 68.14272949 27.7582373 68.50854492 28.38818359 C71.88354492 34.25774881 71.88354492 34.25774881 71.88354492 35.38818359 C62.97354492 35.38818359 54.06354492 35.38818359 44.88354492 35.38818359 C42.73854492 31.63443359 40.59354492 27.88068359 38.38354492 24.01318359 C37.70485352 22.83062988 37.02616211 21.64807617 36.3269043 20.4296875 C35.7990332 19.50075684 35.27116211 18.57182617 34.72729492 17.61474609 C34.18266602 16.66164551 33.63803711 15.70854492 33.0769043 14.7265625 C31.88354492 12.38818359 31.88354492 12.38818359 31.88354492 10.38818359 C22.31354492 10.71818359 12.74354492 11.04818359 2.88354492 11.38818359 C6.34854492 14.85318359 6.34854492 14.85318359 9.88354492 18.38818359 C11.54441388 20.27263106 13.20431385 22.15811239 14.84057617 24.06396484 C16.45784768 25.90388176 18.09810692 27.70441752 19.77026367 29.49365234 C20.27332031 30.03352783 20.77637695 30.57340332 21.29467773 31.12963867 C22.30175836 32.20743401 23.31275646 33.28158394 24.32788086 34.35180664 C27.88354492 38.16686747 27.88354492 38.16686747 27.88354492 40.38818359 C29.79780273 40.33791016 29.79780273 40.33791016 31.75073242 40.28662109 C36.07324641 40.28493195 40.12633778 40.81870536 44.37719727 41.55786133 C54.36917624 43.28685008 62.89936029 43.38502052 72.88354492 41.38818359 C75.84590616 40.83424613 78.81018233 40.29321062 81.77661133 39.76147461 C83.80483545 39.39538701 85.83075795 39.01623943 87.85375977 38.62231445 C93.22147378 37.62687599 97.5325381 37.22136683 102.88354492 38.38818359 C102.2569397 37.72399414 102.2569397 37.72399414 101.61767578 37.04638672 C99.68399341 34.99503442 97.75251343 32.94162042 95.82104492 30.88818359 C95.16426758 30.19208984 94.50749023 29.49599609 93.83081055 28.77880859 C82.29244323 16.50153105 82.29244323 16.50153105 78.88354492 11.38818359 C76.56948272 10.65742711 74.23525623 9.98680102 71.88354492 9.38818359 C70.88354492 8.38818359 70.88354492 8.38818359 70.57104492 6.01318359 C70.88354492 3.38818359 70.88354492 3.38818359 72.58329773 1.74838257 C75.29435485 0.14526046 76.86798608 0.00836385 80 0 C81.5272747 -0.01418472 81.5272747 -0.01418472 83.08540344 -0.02865601 C84.72765144 -0.01954697 84.72765144 -0.01954697 86.40307617 -0.01025391 C88.10097542 -0.01455917 88.10097542 -0.01455917 89.83317566 -0.01895142 C92.22798157 -0.02099268 94.62280412 -0.01545852 97.01757812 -0.00292969 C100.671851 0.01307761 104.32501028 -0.00275409 107.97924805 -0.02197266 C110.30802652 -0.01998936 112.6368043 -0.01614391 114.96557617 -0.01025391 C116.05433548 -0.0163266 117.14309479 -0.02239929 118.2648468 -0.02865601 C124.22288606 0.0261707 128.68406244 0.36675684 133.88354492 3.38818359 C135.46923828 5.06713867 135.46923828 5.06713867 136.47338867 6.90771484 C136.86155762 7.59414062 137.24972656 8.28056641 137.6496582 8.98779297 C138.03621582 9.71804687 138.42277344 10.44830078 138.82104492 11.20068359 C139.23854004 11.95027344 139.65603516 12.69986328 140.08618164 13.47216797 C140.94387784 15.01361059 141.79382313 16.55939137 142.63598633 18.109375 C143.82829186 20.28725756 145.05479004 22.44029562 146.30151367 24.58740234 C146.86140991 25.55166138 146.86140991 25.55166138 147.43261719 26.53540039 C147.78767334 27.14681885 148.14272949 27.7582373 148.50854492 28.38818359 C151.88354492 34.25774881 151.88354492 34.25774881 151.88354492 35.38818359 C143.10018038 36.87076839 133.4432434 38.43838688 124.88354492 35.38818359 C121.56812621 31.8411488 119.83323133 27.82593102 117.94604492 23.38818359 C116.0381102 18.91369868 114.27935152 14.91941253 110.88354492 11.38818359 C101.99229128 8.31850563 91.99521061 9.91030893 82.88354492 11.38818359 C83.32110107 11.8507959 83.75865723 12.3134082 84.20947266 12.79003906 C86.24789016 14.94659852 88.28462794 17.10473498 90.32104492 19.26318359 C91.05226563 20.03734619 91.78348633 20.81150879 92.53686523 21.60913086 C97.16236016 26.51923218 101.69479927 31.48210616 106.08666992 36.60302734 C111.65305121 42.13310615 121.34191725 42.85479944 128.88354492 43.38818359 C135.96695865 43.25307377 142.99106315 42.11895603 149.94213867 40.81396484 C153.41391767 40.31140985 156.75210745 40.29260399 160.25854492 40.32568359 C162.12639648 40.33921875 162.12639648 40.33921875 164.03198242 40.35302734 C165.44350586 40.37042969 165.44350586 40.37042969 166.88354492 40.38818359 C165.18515019 44.76563613 163.34637384 48.17306822 159.88354492 51.38818359 C156.32807427 51.9623826 153.36337276 51.92273559 149.8034668 51.66772461 C144.00593109 51.27124232 139.07423727 51.89115292 133.44604492 53.32568359 C132.35477295 53.60013306 132.35477295 53.60013306 131.24145508 53.88012695 C128.68142093 54.55151596 126.25713204 55.20139004 123.88354492 56.38818359 C124.21354492 57.37818359 124.54354492 58.36818359 124.88354492 59.38818359 C126.55030273 58.84677734 126.55030273 58.84677734 128.25073242 58.29443359 C137.64433551 55.33047877 146.08397604 52.70156021 155.88354492 55.38818359 C155.55354492 56.70818359 155.22354492 58.02818359 154.88354492 59.38818359 C154.02631836 59.43716797 153.1690918 59.48615234 152.28588867 59.53662109 C146.1739272 59.93627585 140.70802608 60.52930663 134.88354492 62.38818359 C133.56354492 62.38818359 132.24354492 62.38818359 130.88354492 62.38818359 C134.11511325 68.28930837 138.2521221 70.88314864 143.88354492 74.38818359 C152.41905691 79.84803008 160.57883631 85.30123052 167.88354492 92.38818359 C167.26392522 96.33121809 165.31844449 98.93986112 163.00854492 102.13818359 C162.30987305 103.12302734 161.61120117 104.10787109 160.89135742 105.12255859 C160.2287793 105.87021484 159.56620117 106.61787109 158.88354492 107.38818359 C155.88354492 107.38818359 155.88354492 107.38818359 154.35302734 106.18237305 C153.82040283 105.62767334 153.28777832 105.07297363 152.73901367 104.50146484 C151.84666016 103.5878418 151.84666016 103.5878418 150.9362793 102.65576172 C150.32075195 102.01058594 149.70522461 101.36541016 149.07104492 100.70068359 C147.85870683 99.44435458 146.64389023 98.19041222 145.42651367 96.93896484 C144.83829834 96.33012451 144.25008301 95.72128418 143.64404297 95.09399414 C141.98155446 93.4831486 140.26626668 92.12381928 138.41479492 90.73974609 C135.88354492 88.38818359 135.88354492 88.38818359 135.62182617 85.92333984 C135.81131836 85.10736328 136.00081055 84.29138672 136.19604492 83.45068359 C136.96733773 78.71073868 136.69558371 76.47017539 133.88354492 72.38818359 C132.3256023 70.51786161 130.74421374 68.69021998 129.09057617 66.90380859 C127.88354492 65.38818359 127.88354492 65.38818359 127.88354492 63.38818359 C127.3240918 63.50677734 126.76463867 63.62537109 126.18823242 63.74755859 C120.66133604 64.63612714 116.70535893 64.21841902 111.38354492 62.45068359 C100.98172524 59.17666822 89.11480884 58.50457518 78.86010742 62.64208984 C70.86633458 65.65950212 63.15597306 63.90573342 55.10620117 62.07958984 C51.94400156 61.28329765 51.94400156 61.28329765 48.88354492 61.38818359 C53.74757898 67.96162259 59.02030163 71.96103555 66.01367188 75.92749023 C72.79608879 79.80665755 78.86993414 84.40084771 84.88354492 89.38818359 C85.51776367 89.89607422 86.15198242 90.40396484 86.80541992 90.92724609 C87.88354492 92.38818359 87.88354492 92.38818359 87.82495117 94.18505859 C86.50744657 97.26834737 84.71404771 99.87379857 82.82104492 102.63818359 C82.08756836 103.71583984 81.3540918 104.79349609 80.59838867 105.90380859 C80.03249023 106.72365234 79.4665918 107.54349609 78.88354492 108.38818359 C75.91159407 107.05519109 73.86893439 105.60511214 71.60620117 103.27099609 C70.71191406 102.36027344 70.71191406 102.36027344 69.79956055 101.43115234 C69.18790039 100.79822266 68.57624023 100.16529297 67.94604492 99.51318359 C66.73104873 98.2633996 65.51364844 97.01594768 64.29370117 95.77099609 C63.71692627 95.17915527 63.14015137 94.58731445 62.54589844 93.97753906 C60.75729659 92.19074858 60.75729659 92.19074858 57.91479492 90.27880859 C55.88354492 88.38818359 55.88354492 88.38818359 55.75463867 85.80224609 C55.94155273 84.88185547 56.1284668 83.96146484 56.32104492 83.01318359 C56.95032766 78.55316024 56.95032766 78.55316024 55.50854492 74.32568359 C53.88108577 72.50447931 52.24912723 70.68727195 50.61010742 68.87646484 C49.38420898 67.52101562 49.38420898 67.52101562 48.13354492 66.13818359 C47.33432617 65.28740234 46.53510742 64.43662109 45.71166992 63.56005859 C43.88354492 61.38818359 43.88354492 61.38818359 43.88354492 59.38818359 C35.09975619 60.61665915 35.09975619 60.61665915 26.44604492 62.51318359 C11.28252192 65.88590209 -4.25905869 61.68029034 -18.11645508 55.38818359 C-18.11645508 55.05818359 -18.11645508 54.72818359 -18.11645508 54.38818359 C-11.59383322 54.10413393 -5.60763063 54.04130204 0.69604492 55.88818359 C12.89367403 59.26302169 24.84073626 57.54942087 36.88354492 54.38818359 C36.38854492 52.40818359 36.38854492 52.40818359 35.88354492 50.38818359 C34.95155273 50.67693359 34.01956055 50.96568359 33.05932617 51.26318359 C14.01673284 56.92034625 -2.31897812 53.96809323 -19.61645508 44.77880859 C-20.44145508 44.31990234 -21.26645508 43.86099609 -22.11645508 43.38818359 C-22.11645508 43.05818359 -22.11645508 42.72818359 -22.11645508 42.38818359 C10.39783343 40.20680506 10.39783343 40.20680506 23.88354492 39.38818359 C23.27265015 38.73970459 23.27265015 38.73970459 22.64941406 38.078125 C0.42506117 14.47121608 0.42506117 14.47121608 -1.11645508 11.38818359 C-3.43852033 10.68327093 -5.77238576 10.0160593 -8.11645508 9.38818359 C-9.11645508 8.38818359 -9.11645508 8.38818359 -9.42895508 6.01318359 C-9.11645508 3.38818359 -9.11645508 3.38818359 -7.41670227 1.74838257 C-4.70564515 0.14526046 -3.13201392 0.00836385 0 0 Z " fill="#F0EFEF" transform="translate(155.116455078125,134.61181640625)"/>
<path d="M0 0 C1.3606152 0.03962957 2.72061697 0.11085657 4.078125 0.2109375 C4.77550781 0.23800781 5.47289062 0.26507813 6.19140625 0.29296875 C7.90498205 0.36338967 9.61695802 0.47100837 11.328125 0.5859375 C10.5999279 2.66951662 9.87150176 4.7530153 9.14282227 6.83642578 C8.51275676 8.63806282 7.88304061 10.43982207 7.25366211 12.24169922 C5.6917153 16.70901671 4.12225458 21.17324023 2.52734375 25.62890625 C2.25100098 26.40306885 1.9746582 27.17723145 1.68994141 27.97485352 C1.16487552 29.44372293 0.63728314 30.91169214 0.10693359 32.37866211 C-1.21850044 35.89432236 -1.21850044 35.89432236 -1.671875 39.5859375 C-1.07761719 38.80992187 -0.48335938 38.03390625 0.12890625 37.234375 C3.77348309 32.48235884 7.41826018 27.73114966 11.125 23.02734375 C11.58124756 22.44758789 12.03749512 21.86783203 12.50756836 21.27050781 C13.43224465 20.1024613 14.36280227 18.93904753 15.29907227 17.78027344 C17.56392721 14.95426821 19.64566171 12.15135613 21.49609375 9.03515625 C23.58739768 5.69613253 25.29834051 3.11302232 28.328125 0.5859375 C33.54077868 -0.40744685 38.05792815 -0.16397193 43.328125 0.5859375 C41.69976655 6.7674766 38.38592413 11.89708107 35.140625 17.3359375 C33.87813632 19.47350379 32.61644677 21.61154221 31.35546875 23.75 C30.69788574 24.8627832 30.04030273 25.97556641 29.36279297 27.12207031 C27.28719756 30.64596785 25.2434416 34.18772149 23.20703125 37.734375 C22.87059097 38.32005249 22.5341507 38.90572998 22.18751526 39.50915527 C20.55742931 42.3482543 18.92975975 45.1887205 17.30395508 48.03027344 C15.66015398 50.89111743 13.99723695 53.73981761 12.328125 56.5859375 C11.75964844 57.60373291 11.75964844 57.60373291 11.1796875 58.64208984 C10.1953125 60.3046875 10.1953125 60.3046875 8.328125 62.5859375 C5.96875 63.171875 5.96875 63.171875 3.578125 62.9609375 C2.82756836 62.89471191 2.07701172 62.82848633 1.30371094 62.76025391 C0.3257959 62.67396729 0.3257959 62.67396729 -0.671875 62.5859375 C3.37028232 54.23344932 7.77907319 46.18775581 12.515625 38.2109375 C13.74001694 36.14165102 14.96272909 34.07136951 16.18359375 32 C16.98253052 30.65349365 16.98253052 30.65349365 17.79760742 29.27978516 C19.41668169 26.43006982 20.8868287 23.5290003 22.328125 20.5859375 C21.8019458 21.26245361 21.8019458 21.26245361 21.26513672 21.95263672 C20.76771973 22.59217285 20.27030273 23.23170898 19.7578125 23.890625 C19.19763428 24.61088867 18.63745605 25.33115234 18.06030273 26.07324219 C16.80994933 27.68076898 15.55945843 29.28818883 14.30883789 30.89550781 C11.02171111 35.12058115 7.73678159 39.34732235 4.45703125 43.578125 C3.83779785 44.37621582 3.21856445 45.17430664 2.58056641 45.99658203 C1.39839553 47.52033255 0.21703882 49.04471518 -0.96337891 50.56982422 C-2.03627723 51.95198651 -3.11851308 53.32696806 -4.21142578 54.69335938 C-5.68185482 56.53619339 -5.68185482 56.53619339 -6.83154297 58.43164062 C-7.94921875 60.1015625 -7.94921875 60.1015625 -10.671875 62.5859375 C-14.06409544 63.07628449 -17.27113324 62.94252013 -20.671875 62.5859375 C-19.18051676 58.4958606 -17.68709854 54.40654319 -16.19189453 50.31787109 C-15.68516422 48.93135156 -15.17896481 47.54463785 -14.67333984 46.15771484 C-13.93992704 44.14627578 -13.20493463 42.13542618 -12.46875 40.125 C-12.11024963 39.14590668 -12.11024963 39.14590668 -11.74450684 38.14703369 C-10.04344653 33.52859802 -8.24297835 28.9601055 -6.34472656 24.41943359 C-5.55703775 22.5985199 -5.55703775 22.5985199 -5.671875 20.5859375 C-6.23132813 21.606875 -6.79078125 22.6278125 -7.3671875 23.6796875 C-9.0771966 26.79150428 -10.8095857 29.88991401 -12.55078125 32.984375 C-14.80741797 37.00053427 -16.98255962 41.05304833 -19.13671875 45.125 C-20.33477353 47.32094793 -21.53398081 49.51626751 -22.734375 51.7109375 C-23.28689941 52.78408203 -23.83942383 53.85722656 -24.40869141 54.96289062 C-25.99529458 57.81294289 -27.40417469 60.2393149 -29.671875 62.5859375 C-32.86025771 63.46368501 -35.4635472 63.29708277 -38.671875 62.5859375 C-37.04351655 56.4043984 -33.72967413 51.27479393 -30.484375 45.8359375 C-29.22188632 43.69837121 -27.96019677 41.56033279 -26.69921875 39.421875 C-26.04163574 38.3090918 -25.38405273 37.19630859 -24.70654297 36.04980469 C-22.63094756 32.52590715 -20.5871916 28.98415351 -18.55078125 25.4375 C-18.21434097 24.85182251 -17.8779007 24.26614502 -17.53126526 23.66271973 C-15.90117931 20.8236207 -14.27350975 17.9831545 -12.64770508 15.14160156 C-11.49294204 13.13187125 -10.32858128 11.12760891 -9.15234375 9.13037109 C-8.27271751 7.61858602 -7.42013829 6.08965319 -6.62890625 4.52978516 C-4.77098714 1.10650887 -3.93415262 0.62779031 0 0 Z M-4.671875 17.5859375 C-3.671875 19.5859375 -3.671875 19.5859375 -3.671875 19.5859375 Z " fill="#0000F0" transform="translate(493.671875,199.4140625)"/>
<path d="M0 0 C0.84232178 0.01345459 1.68464355 0.02690918 2.55249023 0.04077148 C3.95917969 0.05140625 3.95917969 0.05140625 5.39428711 0.06225586 C6.37333008 0.09512695 7.35237305 0.12799805 8.36108398 0.16186523 C9.78904297 0.17056641 9.78904297 0.17056641 11.24584961 0.17944336 C27.65796981 0.45875106 27.65796981 0.45875106 31.79858398 4.59936523 C32.88986978 12.08246783 29.43897835 17.83860502 25.22436523 23.84155273 C21.13185536 28.89756726 16.62629763 31.82015984 10.79858398 34.59936523 C9.46479183 35.26511347 8.13131509 35.93149547 6.79858398 36.59936523 C7.12858398 37.25936523 7.45858398 37.91936523 7.79858398 38.59936523 C7.89768735 41.52582919 7.93747347 44.42331281 7.92358398 47.34936523 C7.92938477 48.54819336 7.92938477 48.54819336 7.93530273 49.77124023 C7.92808479 54.15975342 7.676574 58.27909689 6.79858398 62.59936523 C2.83858398 62.59936523 -1.12141602 62.59936523 -5.20141602 62.59936523 C-5.20141602 55.00936523 -5.20141602 47.41936523 -5.20141602 39.59936523 C-7.84141602 38.60936523 -10.48141602 37.61936523 -13.20141602 36.59936523 C-13.42829102 37.41018555 -13.65516602 38.22100586 -13.88891602 39.05639648 C-15.52249221 43.46607985 -17.77664111 47.27213079 -20.20141602 51.28686523 C-20.87817383 52.42478516 -20.87817383 52.42478516 -21.56860352 53.58569336 C-23.38923562 56.6371374 -25.22979636 59.64193574 -27.20141602 62.59936523 C-29.58422852 62.89233398 -29.58422852 62.89233398 -32.32641602 62.78686523 C-33.6915332 62.74625977 -33.6915332 62.74625977 -35.08422852 62.70483398 C-35.78290039 62.6700293 -36.48157227 62.63522461 -37.20141602 62.59936523 C-32.92470678 53.66359195 -28.23911429 45.10276962 -23.16625977 36.59936523 C-19.46517158 30.38825459 -15.86916995 24.11636493 -12.26391602 17.84936523 C-10.98428935 15.62522205 -9.70435972 13.40125312 -8.42407227 11.17749023 C-7.87501221 10.22261719 -7.32595215 9.26774414 -6.76025391 8.28393555 C-5.98862915 6.95507324 -5.98862915 6.95507324 -5.20141602 5.59936523 C-4.73799805 4.6708374 -4.27458008 3.74230957 -3.79711914 2.78564453 C-2.20141602 0.59936523 -2.20141602 0.59936523 0 0 Z M-5.79516602 23.22045898 C-7.26545542 26.14326168 -7.26545542 26.14326168 -7.20141602 27.59936523 C4.14861472 28.32308143 4.14861472 28.32308143 14.43139648 24.37670898 C17.76057194 20.80973528 18.6114132 17.37222031 18.79858398 12.59936523 C16.41198228 10.21276353 11.35787229 10.64829719 8.10522461 10.49804688 C-0.10700547 10.77650544 -2.53230424 16.42877652 -5.79516602 23.22045898 Z " fill="#0000F0" transform="translate(53.201416015625,30.400634765625)"/>
<path d="M0 0 C12.21 0 24.42 0 37 0 C36.34 1.65 35.68 3.3 35 5 C34.57460938 6.08925781 34.14921875 7.17851562 33.7109375 8.30078125 C30.40622071 11.59121252 29.44525042 11.38274538 24.9140625 11.41796875 C21.24484923 11.3437013 17.59332391 11.18564162 13.9296875 10.97070312 C10.32979213 10.9176479 7.44889589 10.94645498 4 12 C0.9197457 15.52215602 -0.25047614 18.56257129 -2 23 C5.59 23.33 13.18 23.66 21 24 C18.26319115 32.21042654 18.26319115 32.21042654 16 35 C13.27270508 35.56762695 13.27270508 35.56762695 10.01953125 35.48828125 C8.85615234 35.47216797 7.69277344 35.45605469 6.49414062 35.43945312 C4.67172852 35.37661133 4.67172852 35.37661133 2.8125 35.3125 C1.58595703 35.28994141 0.35941406 35.26738281 -0.90429688 35.24414062 C-3.93741559 35.18513053 -6.96810222 35.10284592 -10 35 C-10.99 37.475 -10.99 37.475 -12 40 C-13.98 43.63 -15.96 47.26 -18 51 C-5.13 51.495 -5.13 51.495 8 52 C5.525 56.95 5.525 56.95 3 62 C-9.54 62 -22.08 62 -35 62 C-24.36234976 42.49764123 -13.44827153 23.17643103 -2.17651367 4.03344727 C-1.41142348 2.71109072 -0.68322615 1.3664523 0 0 Z " fill="#0000F0" transform="translate(547,200)"/>
<path d="M0 0 C1.53995173 3.07990345 1.22377524 5.58742761 1 9 C0.17748648 11.46754057 -0.85121378 13.65456147 -2 16 C-5.3 16 -8.6 16 -12 16 C-11.67 13.69 -11.34 11.38 -11 9 C-18.18354786 8.604957 -18.18354786 8.604957 -25.125 10.125 C-27.59825464 12.59825464 -27.54906774 14.60420403 -28 18 C-27.09636719 18.45890625 -26.19273437 18.9178125 -25.26171875 19.390625 C-24.0700523 20.00991623 -22.87866034 20.62973585 -21.6875 21.25 C-20.51574219 21.85328125 -19.34398437 22.4565625 -18.13671875 23.078125 C-15.19567642 24.88010859 -13.63261809 26.00490926 -12 29 C-11.84058751 38.24592446 -17.08259877 45.1988172 -23.125 51.8125 C-30.69376108 58.96288735 -39.01956702 61.58073941 -49.30859375 61.46875 C-52.46738544 60.9185976 -54.41204574 59.87232865 -57 58 C-59.47828935 53.86951775 -58.97181718 50.7655333 -57.9375 46.25 C-57.21484375 43.390625 -57.21484375 43.390625 -56 41 C-52.27150319 38.96078977 -49.21075383 38.80415098 -45 39 C-45 42.3 -45 45.6 -45 49 C-40.63904428 50.5474359 -37.35486968 49.61679174 -33.1640625 48.08203125 C-29.58279609 46.29139805 -28.06489164 44.44148607 -26 41 C-25.8610901 38.44223244 -25.8610901 38.44223244 -27 36 C-29.67148667 34.15624358 -29.67148667 34.15624358 -32.9375 32.8125 C-38.86521739 30.13478261 -38.86521739 30.13478261 -41 28 C-42.16613912 22.79722547 -41.12261347 18.5258474 -38.5625 13.9375 C-33.03082456 5.56170841 -26.19808589 0.03022935 -16.5625 -2.6875 C-10.05108157 -3.48157542 -5.66420682 -3.59193603 0 0 Z " fill="#0000F0" transform="translate(622,202)"/>
<path d="M0 0 C4.43639044 1.25495908 8.58213003 1.26939705 13.1484375 0.890625 C14.1384375 2.870625 15.1284375 4.850625 16.1484375 6.890625 C3.07357042 13.65464481 -9.15411637 19.59918205 -23.8515625 21.828125 C-24.76059326 21.96903564 -25.66962402 22.10994629 -26.60620117 22.25512695 C-33.90250038 23.23064073 -37.59612667 22.00205228 -43.5390625 17.640625 C-46.92805426 15.1932996 -50.31790358 13.03380665 -53.9765625 11.015625 C-59.33872612 7.89335252 -63.01778797 3.70961533 -66.8515625 -1.109375 C-62.88704626 -2.62346161 -59.75631719 -1.56923443 -55.7265625 -0.609375 C-47.83436646 1.11543481 -41.39249699 1.37070282 -33.8515625 -1.671875 C-22.93213623 -5.57581147 -10.67803157 -3.53445334 0 0 Z " fill="#F00000" transform="translate(269.8515625,197.109375)"/>
<path d="M0 0 C0.495 3.465 0.495 3.465 1 7 C0.14277344 7.23074219 -0.71445312 7.46148437 -1.59765625 7.69921875 C-12.43425789 10.49764523 -12.43425789 10.49764523 -20.19921875 17.96875 C-22.07179153 21.92273267 -23.31035917 25.98578984 -24.5 30.1875 C-26.35837576 36.63186756 -29.30802504 41.2935977 -35 45 C-40.15025287 46.90775074 -44.56555027 47.12359821 -50.03222656 47.07006836 C-58.71400637 46.93430462 -58.71400637 46.93430462 -66.86328125 49.4296875 C-69.10434431 51.81458691 -70.47229053 54.09591077 -72 57 C-72.84056337 58.48878284 -73.68461371 59.97559979 -74.53125 61.4609375 C-75.88797108 63.85996417 -77.22338667 66.26172621 -78.50292969 68.70288086 C-82.528451 76.3682399 -86.67382005 80.28461519 -95 83 C-99.54172218 83.21627248 -102.22830858 80.47432166 -105.546875 77.66796875 C-107.18304197 75.78989537 -107.59909978 74.43177632 -108 72 C-99.86222087 69.26022667 -92.55937129 68.63258661 -84 69 C-83.505 67.02 -83.505 67.02 -83 65 C-94.02384099 64.37106454 -103.42654736 66.13262301 -114 69 C-114.66 67.68 -115.32 66.36 -116 65 C-90.27705759 57.75518626 -90.27705759 57.75518626 -79 61 C-78.7525 60.278125 -78.505 59.55625 -78.25 58.8125 C-76.89016326 55.75286734 -75.17082246 53.5326262 -73 51 C-73.99 50.67 -74.98 50.34 -76 50 C-74.63981009 46.88036045 -73.16739866 44.99165178 -70.5625 42.8125 C-69.96566406 42.30332031 -69.36882812 41.79414063 -68.75390625 41.26953125 C-65.56235992 38.95939193 -62.69368275 38.8710851 -58.88671875 38.82421875 C-57.88576172 38.80037109 -56.88480469 38.77652344 -55.85351562 38.75195312 C-53.75475953 38.70922706 -51.65573968 38.67784535 -49.55664062 38.65820312 C-41.50433195 38.45136814 -41.50433195 38.45136814 -35 34 C-33.62762135 31.17214588 -32.81328337 28.27911898 -32 25.25 C-28.92891312 15.11571526 -25.44834757 8.86954256 -16.23046875 3.1875 C-10.8460629 0.3208461 -6.03139365 -0.24617933 0 0 Z " fill="#0000EC" transform="translate(394,125)"/>
<path d="M0 0 C3.63 0 7.26 0 11 0 C10.74307373 0.87624023 10.48614746 1.75248047 10.22143555 2.65527344 C9.2522705 5.96478775 8.28524697 9.27491324 7.31958008 12.58544922 C6.90439611 14.00724182 6.48840556 15.42879918 6.0715332 16.85009766 C3.52772331 25.52537713 1.1046652 34.20494601 -1 43 C16.73436465 23.20991866 16.73436465 23.20991866 32.89453125 2.20703125 C35 0 35 0 37.796875 -0.48828125 C38.77140625 -0.43027344 39.7459375 -0.37226563 40.75 -0.3125 C41.73484375 -0.26738281 42.7196875 -0.22226562 43.734375 -0.17578125 C44.85585937 -0.08876953 44.85585937 -0.08876953 46 0 C41.92668956 5.77880221 37.36527301 10.95243209 32.57421875 16.14453125 C30.12160841 18.86510508 27.79823079 21.64856676 25.5 24.5 C22.44651321 28.28460334 19.29331699 31.92207537 16 35.5 C12.68753166 39.09917348 9.51336588 42.75912497 6.4375 46.5625 C5.33341797 47.90441406 5.33341797 47.90441406 4.20703125 49.2734375 C2.70893888 51.12417816 1.24876884 53.00613724 -0.17578125 54.9140625 C-5.55898335 61.70282536 -5.55898335 61.70282536 -10.01171875 62.62109375 C-12.75217066 62.62460265 -15.29152879 62.37183063 -18 62 C-15.13073117 49.91206927 -11.74299239 38.00945746 -8.19897461 26.10400391 C-7.29977952 23.08225273 -6.40637791 20.05883014 -5.51367188 17.03515625 C-4.94304116 15.10927635 -4.37208995 13.18349138 -3.80078125 11.2578125 C-3.53413162 10.35588165 -3.26748199 9.45395081 -2.99275208 8.52468872 C-2.7454686 7.69556976 -2.49818512 6.86645081 -2.2434082 6.01220703 C-1.91842094 4.91877487 -1.91842094 4.91877487 -1.58686829 3.80325317 C-1 2 -1 2 0 0 Z " fill="#0000F0" transform="translate(95,31)"/>
<path d="M0 0 C1.84658203 -0.04930664 1.84658203 -0.04930664 3.73046875 -0.09960938 C4.90738281 -0.10669922 6.08429688 -0.11378906 7.296875 -0.12109375 C8.36776367 -0.13454834 9.43865234 -0.14800293 10.54199219 -0.16186523 C13.25 0.4375 13.25 0.4375 14.93457031 2.78491211 C15.36866211 3.66026611 15.80275391 4.53562012 16.25 5.4375 C17.83245275 7.18899165 17.83245275 7.18899165 19.25 8.4375 C17.82119507 8.467229 17.82119507 8.467229 16.36352539 8.49755859 C12.79052668 8.57429437 9.21789966 8.66289978 5.64526367 8.75488281 C4.10627645 8.79289443 2.56720876 8.82779293 1.02807617 8.859375 C-7.09206682 9.02805048 -14.87224767 9.23280481 -22.75 11.4375 C-22.85489746 12.29915771 -22.85489746 12.29915771 -22.96191406 13.17822266 C-23.29158027 15.80866219 -23.64556391 18.43528814 -24 21.0625 C-24.10957031 21.96613281 -24.21914062 22.86976563 -24.33203125 23.80078125 C-25.30855679 30.84204434 -27.26534461 35.1184883 -32.5625 40.0625 C-38.16237874 43.82793571 -45.27368072 44.88970042 -51.75 46.4375 C-63.19328964 49.19861546 -68.73813445 53.50645273 -75.25415039 63.40234375 C-81.20454088 72.3196774 -89.13645831 79.15419181 -97.75 85.4375 C-99.4 83.7875 -101.05 82.1375 -102.75 80.4375 C-101.27451854 76.77701593 -99.33781391 75.1296323 -96.1875 72.8125 C-89.19023755 67.37018476 -83.38341554 61.17759853 -78.625 53.6875 C-74.4129689 47.12645156 -68.30669851 41.81950279 -60.75 39.4375 C-57.75667261 40.4352758 -56.80233685 41.1897025 -54.75 43.4375 C-55.41 41.7875 -56.07 40.1375 -56.75 38.4375 C-55.66460937 38.19515625 -54.57921875 37.9528125 -53.4609375 37.703125 C-52.01547493 37.36522466 -50.57017061 37.02664687 -49.125 36.6875 C-48.41214844 36.53023438 -47.69929688 36.37296875 -46.96484375 36.2109375 C-42.22098786 35.07937555 -38.36651142 33.87048696 -34.75 30.4375 C-33.51668666 27.17209913 -33.00191638 23.88202416 -32.5 20.4375 C-32.20808168 18.64501906 -31.91137548 16.85330985 -31.609375 15.0625 C-31.49045898 14.27101562 -31.37154297 13.47953125 -31.24902344 12.6640625 C-30.54559554 9.52548009 -29.72564933 7.12381884 -27.05078125 5.2421875 C-26.39464844 4.93539062 -25.73851562 4.62859375 -25.0625 4.3125 C-24.41925781 4.00054687 -23.77601563 3.68859375 -23.11328125 3.3671875 C-15.32862882 0.30479531 -8.34610201 0.03982763 0 0 Z " fill="#0000F0" transform="translate(197.75,219.5625)"/>
<path d="M0 0 C2.48046875 -0.48828125 2.48046875 -0.48828125 5.1875 -0.3125 C6.08855469 -0.26738281 6.98960937 -0.22226563 7.91796875 -0.17578125 C8.60503906 -0.11777344 9.29210937 -0.05976563 10 0 C8.54731989 3.90071511 6.72731915 7.4074867 4.65625 11.015625 C4.16771545 11.86942749 4.16771545 11.86942749 3.66931152 12.74047852 C2.61613637 14.57887966 1.55822055 16.41449924 0.5 18.25 C-0.22413866 19.51128972 -0.94809627 20.77268339 -1.671875 22.03417969 C-7.04892681 31.39513807 -12.49645975 40.71277582 -18 50 C-10.08 50.33 -2.16 50.66 6 51 C1 60 1 60 0 61 C-2.52094076 61.08847743 -5.01430893 61.11527301 -7.53515625 61.09765625 C-8.66503212 61.09553383 -8.66503212 61.09553383 -9.81773376 61.09336853 C-12.2326956 61.08775376 -14.64756601 61.07519883 -17.0625 61.0625 C-18.69596221 61.0574869 -20.32942586 61.05292366 -21.96289062 61.04882812 C-25.97529585 61.03777954 -29.98763241 61.02050506 -34 61 C-32.78456482 57.05421868 -31.37761298 53.62493275 -29.26953125 50.078125 C-28.44642456 48.68170776 -28.44642456 48.68170776 -27.60668945 47.25708008 C-27.01460693 46.26474365 -26.42252441 45.27240723 -25.8125 44.25 C-24.55137159 42.11370126 -23.29098207 39.97696619 -22.03125 37.83984375 C-21.37382812 36.72722168 -20.71640625 35.61459961 -20.0390625 34.46826172 C-16.58608619 28.60863408 -13.20357946 22.70807499 -9.8125 16.8125 C-8.56941046 14.65211351 -7.3259474 12.49194189 -6.08203125 10.33203125 C-5.55843018 9.42171143 -5.0348291 8.5113916 -4.49536133 7.57348633 C-4.00189209 6.72423584 -3.50842285 5.87498535 -3 5 C-2.49259277 4.07509766 -1.98518555 3.15019531 -1.46240234 2.19726562 C-0.97980957 1.47216797 -0.4972168 0.74707031 0 0 Z " fill="#0000F0" transform="translate(428,201)"/>
<path d="M0 0 C3.3 0 6.6 0 10 0 C8.34588127 4.5312295 6.10304289 8.61867618 3.75 12.8125 C3.31888916 13.58440674 2.88777832 14.35631348 2.44360352 15.15161133 C-2.48433221 23.93033364 -7.54755426 32.62998814 -12.67578125 41.29296875 C-14.72895873 44.7736873 -16.69293344 48.27070963 -18.54296875 51.86328125 C-23.64308715 61.55790287 -23.64308715 61.55790287 -27.76953125 62.90234375 C-30.37133544 62.93509373 -32.50267999 62.70383758 -35 62 C-31.45884436 54.5290253 -27.5449882 47.38626015 -23.3203125 40.2878418 C-19.19331819 33.35245221 -15.15313918 26.36808783 -11.125 19.375 C-10.48248291 18.26044434 -9.83996582 17.14588867 -9.17797852 15.99755859 C-6.1087421 10.67066463 -3.0452412 5.34064914 0 0 Z " fill="#0000F0" transform="translate(470,200)"/>
<path d="M0 0 C3.57825268 2.86260214 5.92998168 5.50592304 7 10 C6.92158281 14.39136274 6.49811642 16.39418274 3.6875 19.8125 C-0.33916019 23.09001411 -1.60762331 24.04420243 -6.9375 23.875 C-10.88743872 23.24977693 -13.17546013 21.90761457 -16 19 C-18.52481154 15.51335549 -18.43474022 12.20248882 -18 8 C-16.0688665 3.98324232 -14.54365552 2.31798719 -10.6875 0.0625 C-6.48726814 -1.1477363 -4.18587912 -1.24026048 0 0 Z " fill="#F0F0F0" transform="translate(275,107)"/>
<path d="M0 0 C3.57825268 2.86260214 5.92998168 5.50592304 7 10 C6.92158281 14.39136274 6.49811642 16.39418274 3.6875 19.8125 C-0.33916019 23.09001411 -1.60762331 24.04420243 -6.9375 23.875 C-10.89571688 23.24109562 -13.20311629 21.96140628 -16 19 C-18.25423318 15.31125479 -18.27249599 12.08879852 -17.60546875 7.9296875 C-16.30666951 3.79028864 -13.23119836 1.71279905 -9.625 -0.375 C-6.01587782 -1.2343148 -3.58381377 -0.95995012 0 0 Z " fill="#F0F0F0" transform="translate(195,107)"/>
<path d="M0 0 C2.34179133 2.34179133 2.29546326 2.81980865 2.3125 6 C2.10721698 12.39456617 1.32018292 18.26010919 -2.921875 23.26953125 C-12.9111602 32.55267732 -24.63052133 35.7144732 -38 37 C-38.33 34.36 -38.66 31.72 -39 29 C-37.81664062 28.78085938 -36.63328125 28.56171875 -35.4140625 28.3359375 C-20.9420839 25.62383849 -20.9420839 25.62383849 -9.30859375 17.0625 C-7.05171947 13.50539666 -6.87650883 10.39739926 -6.9375 6.25 C-6.94652344 5.45078125 -6.95554687 4.6515625 -6.96484375 3.828125 C-6.97644531 3.22484375 -6.98804688 2.6215625 -7 2 C-4.69 1.34 -2.38 0.68 0 0 Z " fill="#0000F0" transform="translate(435,95)"/>
<path d="M0 0 C1.89526367 1.22631836 1.89526367 1.22631836 3.89526367 3.22631836 C3.89526367 4.21631836 3.89526367 5.20631836 3.89526367 6.22631836 C-30.34970391 22.92497829 -30.34970391 22.92497829 -45.10473633 22.22631836 C-48.2039706 20.74057857 -50.13968393 19.03127219 -52.10473633 16.22631836 C-51.77473633 15.56631836 -51.44473633 14.90631836 -51.10473633 14.22631836 C-49.38085938 13.85083008 -49.38085938 13.85083008 -47.11645508 13.65600586 C-33.07349509 12.19568849 -20.34557467 8.86183608 -7.89624023 2.01098633 C-7.19805176 1.62700684 -6.49986328 1.24302734 -5.78051758 0.84741211 C-4.8607312 0.31071899 -4.8607312 0.31071899 -3.92236328 -0.23681641 C-2.10473633 -0.77368164 -2.10473633 -0.77368164 0 0 Z " fill="#0000F0" transform="translate(287.104736328125,204.773681640625)"/>
<path d="M0 0 C6.03220065 -0.43087148 11.1235404 0.42153714 16.9375 2 C27.42723423 4.7622324 34.63869384 4.21552275 45.03808594 1.43920898 C55.49412755 -1.27605265 63.75642345 0.0874713 74 3 C75.58174375 3.40213824 77.16487426 3.79890656 78.75 4.1875 C79.8225 4.455625 80.895 4.72375 82 5 C82.495 6.98 82.495 6.98 83 9 C77.63829154 8.60437879 72.9565967 8.20293187 68 6 C57.70759797 3.48965804 47.41701168 4.9373891 37.5 8.125 C29.1658213 10.20854467 21.29212189 8.54155359 13.0625 6.75 C12.02287109 6.54503906 10.98324219 6.34007812 9.91210938 6.12890625 C8.92146484 5.91621094 7.93082031 5.70351562 6.91015625 5.484375 C6.01433838 5.29584961 5.11852051 5.10732422 4.19555664 4.91308594 C2 4 2 4 0.69311523 1.90722656 C0.46438721 1.2778418 0.23565918 0.64845703 0 0 Z " fill="#F00000" transform="translate(194,185)"/>
<path d="M0 0 C20.18944733 5.49403102 37.04776215 15.7029563 53 29 C53.71800781 29.57621094 54.43601562 30.15242188 55.17578125 30.74609375 C59.63692009 34.39611644 63.32551745 38.57157395 67 43 C67.94166016 44.10988281 67.94166016 44.10988281 68.90234375 45.2421875 C92 73.14232673 92 73.14232673 92 85 C91.34 85 90.68 85 90 85 C89.49210937 83.96101563 88.98421875 82.92203125 88.4609375 81.8515625 C69.19644954 42.69219796 40.94356581 17.04987189 0 2 C0 1.34 0 0.68 0 0 Z " fill="#F99A9A" transform="translate(297,23)"/>
<path d="M0 0 C0 0.66 0 1.32 0 2 C-2.57857516 3.59913981 -5.16099117 5.09358247 -7.8125 6.5625 C-15.1660691 10.76247091 -21.66343591 15.35306197 -28 21 C-28.83789062 21.71800781 -29.67578125 22.43601562 -30.5390625 23.17578125 C-47.19856061 37.69481753 -58.76254254 55.05795948 -68 75 C-68.66 75 -69.32 75 -70 75 C-63.72073392 54.40400727 -47.6336958 33.37587214 -31 20 C-30.18144531 19.29488281 -29.36289063 18.58976562 -28.51953125 17.86328125 C-21.73035135 12.09296817 -14.66489264 7.49321293 -7 3 C-6.08992188 2.43023437 -5.17984375 1.86046875 -4.2421875 1.2734375 C-2 0 -2 0 0 0 Z " fill="#F99B9B" transform="translate(186,32)"/>
<path d="M0 0 C-0.66 1.65 -1.32 3.3 -2 5 C-2.66902344 4.95359375 -3.33804687 4.9071875 -4.02734375 4.859375 C-13.49238273 4.50364199 -21.93004355 6.59280777 -31 9 C-31.66 7.68 -32.32 6.36 -33 5 C-21.90131161 1.87407728 -11.62240965 -0.95439495 0 0 Z " fill="#F00000" transform="translate(311,185)"/>
<path d="M0 0 C0.66 0 1.32 0 2 0 C2.1952124 0.63800537 2.3904248 1.27601074 2.59155273 1.93334961 C9.11802398 23.00766398 17.32068602 41.436635 31.796875 58.26953125 C34 61 34 61 34 63 C33.34 63 32.68 63 32 63 C30.36297759 61.14085373 28.8617067 59.28742488 27.375 57.3125 C26.92914551 56.72380127 26.48329102 56.13510254 26.02392578 55.52856445 C15.43709252 41.33782347 0 18.59219615 0 0 Z " fill="#F89696" transform="translate(109,200)"/>
<path d="M0 0 C-3.18025577 3.68405866 -6.201622 5.11258392 -10.75 6.75 C-11.92046875 7.17796875 -13.0909375 7.6059375 -14.296875 8.046875 C-15.63492187 8.51867187 -15.63492187 8.51867187 -17 9 C-20 5.25 -20 5.25 -20 3 C-13.12418702 0.8408662 -7.21471629 -0.35482211 0 0 Z " fill="#F00000" transform="translate(306,194)"/>
<path d="M0 0 C0.66 0.66 1.32 1.32 2 2 C-0.31 4.64 -2.62 7.28 -5 10 C-5.33 9.01 -5.66 8.02 -6 7 C-4.78515625 5.17578125 -4.78515625 5.17578125 -3.0625 3.3125 C-2.49660156 2.68988281 -1.93070313 2.06726562 -1.34765625 1.42578125 C-0.90292969 0.95527344 -0.45820313 0.48476563 0 0 Z " fill="#F9A2A2" transform="translate(145,61)"/>
</svg>
